<svg xmlns="http://www.w3.org/2000/svg" viewBox="0 0 93.333 129.333"><defs><clipPath id="a" clipPathUnits="userSpaceOnUse"><path d="M0 97h70V0H0z"/></clipPath></defs><g clip-path="url(#a)" transform="matrix(1.33333 0 0 -1.33333 0 129.333)"><path d="M54.845 97h-.381c-.681-.352-1.088-.943-1.437-1.595-.586-1.093-1.004-2.254-1.317-3.444-.213-.809-.653-1.197-1.481-1.339-2.337-.403-4.041-1.73-5.23-3.743-.742-1.256-1.32-2.588-1.844-3.945-1.428-3.683-2.52-7.48-3.85-11.196-.636-1.774-.662-1.75-2.567-1.769-2.266-.022-2.107.353-2.142-2.146-.011-.792.24-1.192 1.08-1.152.26.013.652.131.75-.215.082-.288-.24-.488-.431-.69-1.192-1.257-2.686-1.989-4.338-2.433-1.898-.51-3.833-.909-5.691-1.533-4.742-1.592-9.138-3.813-12.554-7.574-2.085-2.295-3.52-5.017-4.738-7.84-3.714-8.604-5.454-17.708-6.838-26.9-.65-4.305-1.105-8.634-1.46-12.97C.2 4.347-.028 2.18.004 0h33.324c.118.461-.074.874-.231 1.281-.68 1.753-2.07 2.667-3.827 3.073-.694.16-.782.368-.351.914.732.928 1.214 1.996 1.59 3.105 1.633 4.807 2.264 9.822 3.052 14.8.6 3.8 1.499 7.474 3.477 10.827 1.462 2.48 3.295 4.625 5.595 6.372.83.63.857.63.999-.44.095-.717.12-1.444.164-2.167.289-4.727.264-9.453-.172-14.17-.34-3.68-.474-7.354-.153-11.044.37-4.253 1.153-8.427 2.235-12.55h13.329c-.323 2.192-2.104 4.024-4.24 4.44-1.284.25-2.528.081-3.768-.203-.598-.136-.848-.029-.9.65-.394 5.318-.124 10.604.963 15.82 1.256 6.024 2.438 12.062 3.065 18.183.26 2.543 1.034 4.826 2.274 7.027 1.194 2.12 2.233 4.324 3.406 6.456.928 1.688 1.105 3.396.415 5.19-.273.706-.53 1.422-.862 2.101-.957 1.96-1.971 3.888-2.914 5.853-.488 1.015-.387 1.124.709 1.147 1.63.035 1.632.035 1.657 1.643.004.221-.005.442-.001.663.014.688-.256 1.07-1.015 1.013-.505-.037-1.015 0-1.522-.01-.692-.013-.892.288-.722.955.579 2.28 2.779 4.15 5.136 4.436 2.239.272 4.428-.044 6.612-.43.649-.116 1.006.025 1.25.638.399.997.848 1.974 1.289 2.953.185.41.2.767-.092 1.145-3.178 4.105-6.641 7.9-11.371 10.306-.496.252-.771.574-.888 1.125-.3 1.42-.65 2.83-1.267 4.158-.324.698-.697 1.35-1.403 1.74" fill="#231f20"/></g></svg>