<svg><defs><clipPath id="a" clipPathUnits="userSpaceOnUse"><path d="M0 27.749h13.518V0H0z"/></clipPath></defs><g clip-path="url(#a)" transform="matrix(1.33333 0 0 -1.33333 0 36.999)"><path d="M4.215 1.5H8.03v12.904h3.957v3.374H8.035l-.016.734c-.044 2.04.003 3.784 1.008 4.46l.189.127h2.8v3.15H8.779c-1.557-.091-2.711-.581-3.485-1.496-1.041-1.231-1.41-3.297-1.1-6.144l.093-.832H1.5v-3.375h2.715zM9.53 0H2.715v12.904H0v6.374h2.629c-.202 2.888.298 5 1.519 6.444 1.039 1.229 2.583 1.91 4.588 2.027h4.782V21.6H9.763c-.166-.315-.251-1.093-.252-2.321h3.978v-6.375H9.53z"/></g></svg>