<svg><defs><clipPath id="a" clipPathUnits="userSpaceOnUse"><path d="M0 23h22.987V0H0z"/></clipPath></defs><g clip-path="url(#a)" transform="matrix(1.33333 0 0 -1.33333 0 30.667)" fill="#231f20"><path d="M16.989 23H5.997C2.697 23 0 20.301 0 17V6c0-3.3 2.697-6 5.997-6h10.995c3.296 0 5.995 2.701 5.995 6v11c0 3.301-2.699 6-5.998 6m0-1.499c2.48 0 4.498-2.02 4.498-4.5V6c0-2.482-2.018-4.5-4.498-4.5H5.997A4.504 4.504 0 001.499 6v11c0 2.48 2.018 4.5 4.498 4.5h10.992"/><path d="M11.493 17.422a5.929 5.929 0 010-11.855 5.925 5.925 0 015.926 5.927 5.926 5.926 0 01-5.926 5.928m0-1.5a4.434 4.434 0 004.429-4.428c0-2.44-1.99-4.43-4.43-4.43a4.434 4.434 0 00-4.427 4.43 4.431 4.431 0 004.428 4.428m6.141 3.04a1.342 1.342 0 10-.002-2.684 1.342 1.342 0 00.002 2.684"/></g></svg>