<svg xmlns="http://www.w3.org/2000/svg" height="76.094" width="229.685"><defs><clipPath id="a" clipPathUnits="userSpaceOnUse"><path d="M0 57.07h172.264V0H0z"/></clipPath></defs><g clip-path="url(#a)" transform="matrix(1.33333 0 0 -1.33333 0 76.094)"><path d="M58.153 31.562c-.432-.432-1.344-.72-1.488.576-.143 1.295-.192 2.207-.192 2.207s-1.92 3.406-2.638 3.454c-.72.048-5.806-3.454-7.15-4.942-1.16-1.283-1.391-1.199-1.391-3.454 0-1.706.219-8.132.098-13.05 0 0-2.161-.577-8.111-2.16-5.95-1.584-7.773-1.776-7.773-1.776L28.5 18.223l-.003.001a1.031 1.031 0 01-.04.006h-.001l-.035.005-.05.007-2.558 13.128s-3.791 1.44-5.182 1.823c-1.392.384-2.255.672-4.03-.624-1.776-1.295-1.728-3.838-1.728-3.838s.432-.96.48-1.44c.048-.479-1.2-.43-2.015-.43-.816 0-.912 1.438-.288 3.118.623 1.68 1.919 3.694 1.919 3.694s1.2 2.255 2.063 2.88c0 0 .144.335 1.248.24 1.103-.097 7.245-.433 7.245-.433l.053 2.265a143.65 143.65 0 0020.157 1.33 61.765 61.765 0 00-.058-1.82s4.366 2.015 8.109 1.968c0 0 .43.047.767-.384.336-.432 2.399-2.975 2.639-3.359.24-.384 1.2-1.727 1.823-3.023 0 0-.431-1.343-.863-1.775m1.472 3.77c-5.43 12.992-20.362 19.125-33.355 13.696-12.993-5.427-19.125-20.36-13.697-33.354C16.143 7.127 23.827 1.55 32.366.277a121.472 121.472 0 00-1.684 6.826c1.492-.988 3.075-1.797 4.748-2.544l-.02-.01s.118-2.147.278-4.546a25.353 25.353 0 015.324.476c-.042.157-.043.403.012.76.285 1.853 1.087 5.212 1.243 7.374a15.21 15.21 0 012.887 3.697l-.004-.037-.054-.43c-.552-4.247-1.697-8.776-2.393-10.029a5.756 5.756 0 00-.826-1.148c1.362.318 2.716.753 4.05 1.311C58.92 7.405 65.053 22.338 59.625 35.331" fill="#fdc305"/><path d="M56.21 37.643c.472-.595.883-1.124.982-1.283.241-.384 1.2-1.727 1.824-3.023 0 0-.432-1.343-.864-1.775-.432-.432-1.343-.719-1.487.576-.144 1.296-.192 2.207-.192 2.207s-1.919 3.407-2.639 3.455c-.72.048-5.806-3.455-7.149-4.942-1.16-1.284-1.392-1.2-1.392-3.455 0-1.495.17-6.621.13-11.177 1.8-.208 4.446-.707 5.244-1.874 0 0-.288 7.149 7.773 3.407 0 0 .288 9.74 11.42 7.245 0 0-5.644 6.929-13.65 10.639m-10.475 2.313c.145 8.476-1.4 16.46-1.4 16.46s-.145 1.296-.865.24c-.719-1.055-1.199-3.934-1.199-3.934-7.437.431-12.763-.336-12.763-.336-.816 2.735-2.207 3.934-2.879 3.646-.672-.287-.72-3.31-.72-3.31l-.33-14.096a143.645 143.645 0 0020.156 1.33" fill="#f06351"/><path d="M45.154 12.31c.126 1.061.2 2.475.238 4.042l-8.111-2.159c-5.95-1.583-7.773-1.775-7.773-1.775l1.104-4.99.07-.325c1.492-.987 3.075-1.797 4.748-2.544 4.354 2.155 6.84 4.117 6.84 4.117 0-.021-.002-.042-.003-.062a15.205 15.205 0 012.887 3.696" fill="#e55645"/><path d="M31.86 43.078c-.047.09 1.02-.68 1.404-.92.384-.24.61-.423.61-.591 0-.168-.264-.336-.624-.336s-.912.12-.959.264c0 0 .6.024.935.024h.288s-1.39 1.03-1.655 1.559m7.471-.114s-1.047-1.273-1.086-1.332c-.04-.059-.166-.34.185-.293.35.05 1.11.225 1.217.283.108.06.07.196-.116.175-.205-.02-.682-.048-.985-.106l.841 1.26s.026.118-.057.013m-3.131-6.088s.81.351 1.09 1.007c.278.657.035.912-.442.978-.477.066-1.34.03-1.736-.339-.396-.369-.342-.729-.054-.954.288-.224.845-.602 1.142-.692"/><path d="M35.793 35.625s-.179-.372-.458-.594a1.727 1.727 0 00-1.017-.386c-.638-.033-1.055.17-1.45.445-.204.141-.396.254-.533.442a.949.949 0 01-.356.252s.747-4.097 2.564-4.745c1.817-.647 2.143.75 2.2 1.133.048.326 0 2.081-.82 3.222-.015.303-.03.1-.13.231" fill="#f06351"/><path d="M34.153 34.493h-.016c-1.292.011-2.29 1.36-2.332 1.418a.144.144 0 00.233.17c.01-.014.956-1.29 2.103-1.3h.012c.584 0 1.131.333 1.627.99l.142.188.103-.213c.003-.007.372-.755.987-.794.497-.03 1.053.411 1.616 1.278a.144.144 0 10.241-.157c-.633-.974-1.264-1.447-1.876-1.408-.563.036-.942.495-1.117.764-.519-.622-1.098-.936-1.723-.936"/><path d="M33.698 24.049l4.113 5.385-.803-4.002 1.958.818-4.113-5.385.803 4.002zm7.356 3.807l-3.12-1.304 1.145 5.612-7.469-9.72 3.12 1.303-1.145-5.612z" fill="#111"/><path d="M45.678 38.154s-2.543-2.244-5.062-5.189c-2.52-2.945-5.29-4.874-5.29-4.874-.216.526-1.62 1.508-1.62 1.508s-3.13 2.138-5.181 3.822c-1.18.967-2.346 2.165-3.125 3.01-.292.015-1.065.057-2.005.11 4.69-6.969 11.967-8.8 11.967-8.8.864.14 3.275 1.858 5.074 3.26 1.799 1.403 4.75 4.523 5.938 5.891.6.692.943 1.42 1.135 1.97-1.11-.383-1.831-.708-1.831-.708M25.814 31.37s-3.791 1.44-5.182 1.823c-1.391.385-2.255.673-4.03-.623-1.775-1.296-1.727-3.839-1.727-3.839s.43-.96.48-1.44c.047-.479-1.2-.43-2.016-.43-.816 0-.911 1.438-.288 3.117.624 1.68 1.92 3.695 1.92 3.695C9.549 30.843 0 24.317 0 24.317s2.926.287 8.156-.24c5.23-.528 4.942-4.654 4.942-4.654s3.503.96 5.614 1.103c2.11.144 2.255-2.11 2.255-2.11l.528-3.839s.48.623 2.639 2.351c1.852 1.483 3.867 1.356 4.365 1.295z" fill="#f06351"/><path d="M89.559 19.95c-.663.853-.994 2.082-.994 3.69v5.337c0 1.644.328 2.886.985 3.726.656.84 1.782 1.26 3.377 1.26 1.52 0 2.597-.37 3.23-1.112.63-.742.947-1.807.947-3.193v-1.251H94.16v1.379c0 .442-.022.798-.064 1.068-.044.27-.154.493-.332.672-.178.177-.451.267-.82.267-.551 0-.907-.178-1.066-.534-.16-.356-.24-.877-.24-1.565v-6.772c0-.7.093-1.221.277-1.564.184-.344.527-.516 1.03-.516.516 0 .847.175.994.525.147.35.22.868.22 1.555v1.454h2.945v-1.233c0-1.423-.313-2.525-.938-3.304-.626-.78-1.706-1.168-3.24-1.168-1.582 0-2.704.426-3.367 1.279m14.151 4.076l-.901 6-.883-6zm-2.594 9.754h3.368l2.87-14.907h-2.796l-.553 3.276h-2.355l-.57-3.276h-2.853zm8.392-2.245h-2.3v2.245h7.618v-2.245h-2.263V18.873h-3.055z" fill="#111"/><path d="M120.808 33.78h5.778v-1.546h-3.7v-4.932h3V25.83h-3v-5.466h3.737v-1.491h-5.815zm7.49 0h1.417l4.232-9.901v9.9h1.73V18.874h-1.325l-4.288 10.178V18.873h-1.766zm9.717 0h5.779v-1.546h-3.7v-4.932h3V25.83h-3v-5.466h3.736v-1.491h-5.815zm10.361-6.423c.896 0 1.537.178 1.923.534.386.356.58 1 .58 1.932 0 .614-.068 1.095-.203 1.445-.135.35-.375.608-.717.773-.344.165-.829.248-1.454.248h-.921v-4.932zm-2.871 6.423h3c1.509 0 2.616-.31 3.322-.93.705-.62 1.058-1.628 1.058-3.027 0-1.914-.613-3.073-1.841-3.478l2.117-7.472h-2.007l-1.95 6.993h-1.62v-6.993h-2.079zm10.177-13.812c-.6.853-.902 2.12-.902 3.8v4.987c0 1.153.12 2.102.36 2.844s.65 1.312 1.232 1.711c.582.4 1.384.598 2.402.598 1.374 0 2.365-.349 2.972-1.048.608-.7.911-1.798.911-3.295v-.552h-1.95v.46c0 .711-.044 1.261-.129 1.647-.086.387-.267.678-.543.874-.276.196-.685.295-1.224.295-.577 0-1.006-.132-1.288-.396-.282-.263-.464-.616-.543-1.058-.08-.44-.12-1.03-.12-1.767v-5.52c0-1.142.138-1.96.414-2.458.277-.497.807-.745 1.592-.745.773 0 1.304.27 1.592.81.288.54.432 1.405.432 2.594v1.031h-1.895v1.472h3.772v-7.379h-1.306l-.202 1.711c-.466-1.263-1.35-1.895-2.65-1.895-1.35 0-2.325.425-2.927 1.28m11.392 4.167l-3.22 9.644h1.932l2.282-7.196 2.246 7.196h1.95l-3.202-9.644v-5.263h-1.988z" fill="#444"/></g></svg>