<svg xmlns="http://www.w3.org/2000/svg" height="79.307" width="269.32"><defs><clipPath id="a" clipPathUnits="userSpaceOnUse"><path d="M0 59.48h201.99V0H0z"/></clipPath></defs><g clip-path="url(#a)" transform="matrix(1.33333 0 0 -1.33333 0 79.307)"><path d="M58.406 31.7c-.434-.434-1.35-.723-1.494.578a43.426 43.426 0 00-.193 2.217s-1.927 3.421-2.65 3.47c-.723.047-5.831-3.47-7.18-4.964-1.165-1.289-1.398-1.205-1.398-3.47 0-1.713.22-8.166.099-13.108l-8.146-2.168c-5.976-1.59-7.807-1.783-7.807-1.783l-1.012 5.831h-.002l-.04.007-.002.001-.035.005a2.223 2.223 0 01-.05.006l-2.57 13.185s-3.807 1.446-5.204 1.831c-1.398.386-2.265.675-4.048-.626-1.783-1.302-1.735-3.855-1.735-3.855s.434-.964.482-1.446c.048-.482-1.205-.434-2.024-.434-.82 0-.916 1.446-.29 3.133.627 1.686 1.928 3.71 1.928 3.71s1.205 2.265 2.073 2.892c0 0 .144.337 1.253.24 1.108-.096 7.276-.433 7.276-.433l.054 2.275a144.285 144.285 0 0020.244 1.336 58.913 58.913 0 00-.058-1.828s4.385 2.024 8.144 1.976c0 0 .434.048.77-.386.338-.434 2.41-2.988 2.652-3.373.24-.386 1.204-1.735 1.83-3.036 0 0-.433-1.349-.867-1.783m1.479 3.786c-5.453 13.049-20.451 19.209-33.5 13.756-13.05-5.451-19.21-20.45-13.757-33.5C16.214 7.158 23.93 1.556 32.507.279c-.58 2.09-1.163 4.4-1.692 6.855 1.499-.991 3.089-1.805 4.77-2.555l-.021-.01s.119-2.157.28-4.566a25.445 25.445 0 015.347.479c-.043.157-.043.405.01.761.288 1.863 1.094 5.237 1.25 7.408a15.251 15.251 0 012.9 3.713l-.004-.037-.055-.433c-.554-4.265-1.704-8.814-2.403-10.071a5.776 5.776 0 00-.83-1.154c1.368.321 2.729.757 4.068 1.317 13.05 5.452 19.209 20.45 13.758 33.5" fill="#fdc305"/><path d="M56.455 37.807c.474-.598.887-1.129.987-1.289.241-.385 1.205-1.734 1.831-3.036 0 0-.433-1.349-.867-1.782-.434-.435-1.349-.724-1.494.578a42.078 42.078 0 00-.193 2.216s-1.928 3.422-2.65 3.47c-.723.048-5.83-3.47-7.18-4.964-1.165-1.289-1.398-1.204-1.398-3.469 0-1.502.17-6.65.13-11.226 1.81-.209 4.465-.71 5.267-1.882 0 0-.289 7.18 7.807 3.422 0 0 .29 9.782 11.47 7.276 0 0-5.669 6.96-13.71 10.686m-10.52 2.323c.146 8.514-1.407 16.532-1.407 16.532s-.145 1.3-.868.24-1.204-3.95-1.204-3.95c-7.47.433-12.82-.338-12.82-.338-.818 2.747-2.216 3.952-2.89 3.663-.675-.29-.723-3.325-.723-3.325l-.332-14.158c6.692.912 13.49 1.374 20.244 1.336" fill="#f06351"/><path d="M45.35 12.364c.127 1.065.2 2.485.24 4.06 0 0-2.171-.58-8.146-2.168-5.976-1.59-7.807-1.784-7.807-1.784l1.109-5.011c.022-.11.046-.218.069-.326 1.499-.992 3.089-1.805 4.77-2.555 4.372 2.164 6.87 4.134 6.87 4.134a1.421 1.421 0 00-.004-.063 15.27 15.27 0 012.9 3.713" fill="#e55645"/><path d="M31.998 43.265c-.046.091 1.026-.684 1.412-.924.385-.242.612-.426.612-.594 0-.169-.265-.337-.627-.337-.361 0-.915.12-.963.265 0 0 .602.024.94.024h.289s-1.398 1.036-1.663 1.566m7.502-.113s-1.05-1.28-1.09-1.338c-.038-.06-.166-.343.187-.294.351.049 1.114.225 1.222.284.107.059.07.197-.118.176-.205-.022-.685-.05-.988-.107l.844 1.265s.027.119-.057.014m-3.144-6.115s.813.353 1.093 1.012c.281.659.037.916-.442.982-.479.066-1.346.03-1.744-.341-.398-.37-.344-.732-.054-.957.289-.226.849-.606 1.147-.696"/><path d="M35.95 35.781s-.181-.374-.46-.597a1.744 1.744 0 00-1.022-.388c-.641-.033-1.06.17-1.457.447-.204.142-.397.256-.535.444a.954.954 0 01-.357.254s.75-4.116 2.576-4.766c1.825-.651 2.15.752 2.209 1.137.048.327 0 2.091-.824 3.237-.014.304-.03.1-.13.232" fill="#f06351"/><path d="M34.302 34.643h-.016c-1.297.011-2.3 1.366-2.342 1.424a.144.144 0 10.233.17c.01-.012.961-1.296 2.113-1.305h.012c.586 0 1.136.335 1.634.994l.143.19.102-.215c.004-.007.375-.758.993-.797.498-.03 1.057.413 1.622 1.284a.144.144 0 00.2.042.144.144 0 00.042-.2c-.635-.978-1.269-1.453-1.884-1.414-.565.036-.945.496-1.122.767-.52-.624-1.103-.94-1.73-.94"/><path d="M32.795 23.488a3.751 3.751 0 106.923 2.89 3.751 3.751 0 00-6.923-2.89" fill="#fdc305"/><path d="M33.845 24.154l4.13 5.408-.805-4.02 1.967.822-4.132-5.408.807 4.02zm7.388 3.823l-3.133-1.31 1.15 5.637-7.502-9.762 3.134 1.308-1.15-5.635zM31.4 26.305a1.124 1.124 0 102.076.866 1.124 1.124 0 00-2.076-.866m6.826-4.265a.794.794 0 101.465.612.794.794 0 00-1.465-.613m1.375 1.909a.349.349 0 00.642.268.348.348 0 00-.642-.268" fill="#111"/><path d="M45.877 38.32s-2.555-2.253-5.085-5.211-5.312-4.895-5.312-4.895c-.217.528-1.626 1.514-1.626 1.514s-3.144 2.149-5.205 3.839c-1.184.97-2.355 2.175-3.138 3.024l-2.014.109c4.71-6.998 12.019-8.838 12.019-8.838.868.14 3.289 1.866 5.096 3.275 1.807 1.409 4.77 4.543 5.964 5.916a6.104 6.104 0 011.14 1.978c-1.113-.384-1.84-.71-1.84-.71" fill="#f06351"/><path d="M65.218 55.982l-8.455-9.444-1.218 1.998 8.148 10.944zm-2.573-13.76l5.55 4.111-.788 3.734-5.403-4.812zm-2.721-32.108l6.129-3.186 3.01 2.346-6.694 2.745zM1.954 53.505l3.064 3.361 9.295-8.999-1.226-2.277zm5.428-10.308l-4.702 3.13-2.405-3.86 5.155-2.403zm6.525-36.268L9.36 3.579 12.165 0l4.02 4.024z" fill="#fdc305"/><path d="M25.926 31.507s-3.807 1.446-5.205 1.831c-1.397.386-2.265.675-4.047-.626-1.784-1.302-1.735-3.855-1.735-3.855s.433-.964.482-1.446c.047-.482-1.205-.434-2.024-.434-.82 0-.916 1.446-.29 3.133.627 1.686 1.928 3.71 1.928 3.71C9.59 30.977 0 24.423 0 24.423s2.94.29 8.192-.24c5.253-.53 4.963-4.675 4.963-4.675s3.52.964 5.64 1.108c2.12.145 2.264-2.12 2.264-2.12l.53-3.855s.482.626 2.65 2.361c1.862 1.49 3.886 1.361 4.385 1.301 0 0 .001 0 0 0z" fill="#f06351"/><path d="M85.657 17.446c-.932 1.199-1.398 2.929-1.398 5.19v7.507c0 2.312.462 4.06 1.385 5.242.924 1.182 2.507 1.773 4.75 1.773 2.14 0 3.655-.522 4.544-1.566.888-1.044 1.333-2.542 1.333-4.491v-1.76h-4.142v1.94c0 .623-.031 1.123-.091 1.503a1.672 1.672 0 01-.466.945c-.25.249-.634.375-1.151.375-.777 0-1.278-.251-1.502-.751-.224-.501-.336-1.234-.336-2.2v-9.526c0-.985.129-1.717.388-2.201.259-.483.742-.725 1.45-.725.725 0 1.19.246 1.398.738.206.492.31 1.22.31 2.188v2.045h4.142v-1.735c0-2.002-.44-3.552-1.32-4.646-.881-1.097-2.4-1.644-4.556-1.644-2.227 0-3.805.599-4.738 1.799m19.907 5.733l-1.268 8.439-1.243-8.439zm-3.65 13.72h4.737l4.039-20.968h-3.935l-.776 4.608h-3.313l-.803-4.608H97.85zm11.804-3.158h-3.236v3.158h10.717v-3.158h-3.184v-17.81h-4.297z" fill="#111"/><path d="M129.612 36.9h8.128v-2.176h-5.204v-6.937h4.22v-2.07h-4.22v-7.69h5.256v-2.096h-8.18zm10.536 0h1.993l5.953-13.928V36.9h2.434V15.931h-1.865l-6.03 14.315V15.931h-2.485zm13.667 0h8.128v-2.176h-5.204v-6.937h4.22v-2.07h-4.22v-7.69h5.256v-2.096h-8.18zm14.575-9.035c1.26 0 2.16.25 2.705.751.543.5.816 1.406.816 2.718 0 .863-.096 1.539-.286 2.031-.19.493-.527.855-1.008 1.088-.484.233-1.166.349-2.045.349h-1.296v-6.937zm-4.038 9.034h4.22c2.123 0 3.679-.436 4.672-1.307.992-.872 1.488-2.291 1.488-4.258 0-2.692-.863-4.323-2.59-4.893l2.977-10.51h-2.821l-2.744 9.837h-2.278v-9.837h-2.924zm14.314-19.427c-.845 1.199-1.269 2.98-1.269 5.345v7.015c0 1.622.169 2.955.505 4 .337 1.043.914 1.846 1.736 2.407.818.561 1.945.841 3.378.841 1.932 0 3.326-.491 4.18-1.475.855-.984 1.282-2.529 1.282-4.633v-.777h-2.745v.647c0 1-.06 1.773-.179 2.317-.122.543-.377.953-.765 1.229-.389.276-.963.415-1.722.415-.81 0-1.416-.186-1.811-.558-.398-.37-.653-.866-.764-1.487-.113-.621-.169-1.45-.169-2.486v-7.766c0-1.604.195-2.757.582-3.456.39-.698 1.136-1.048 2.24-1.048 1.086 0 1.834.379 2.24 1.139.405.759.608 1.977.608 3.649v1.451h-2.666v2.07h5.306v-10.38h-1.837l-.286 2.407c-.656-1.777-1.899-2.666-3.728-2.666-1.897 0-3.269.6-4.116 1.8m16.024 5.863l-4.53 13.564h2.718l3.21-10.121 3.16 10.12h2.743l-4.505-13.563V15.93h-2.796z" fill="#444"/></g></svg>